<?xml version="1.0" standalone="no"?>
<!DOCTYPE svg PUBLIC "-//W3C//DTD SVG 20010904//EN"
 "http://www.w3.org/TR/2001/REC-SVG-20010904/DTD/svg10.dtd">
<svg version="1.0" xmlns="http://www.w3.org/2000/svg"
 width="204.000000pt" height="204.000000pt" viewBox="0 0 204.000000 204.000000"
 preserveAspectRatio="xMidYMid meet">
<metadata>
Created by potrace 1.11, written by Peter Selinger 2001-2013
</metadata>
<g transform="translate(0.000000,204.000000) scale(0.100000,-0.100000)"
fill="#000000" stroke="none">
<path d="M860 2015 c-108 -21 -181 -45 -275 -92 -268 -132 -462 -372 -532
-658 -25 -104 -27 -117 -26 -255 0 -104 5 -154 22 -220 50 -200 127 -336 271
-481 137 -138 281 -220 469 -269 76 -20 133 -25 266 -24 104 2 150 7 227 27
333 87 606 344 707 665 40 127 42 144 46 292 3 127 -6 202 -40 314 -91 309
-358 577 -666 671 -140 42 -337 55 -469 30z"/>
</g>
</svg>
